<svg data-v-423bf9ae="" xmlns="http://www.w3.org/2000/svg" viewBox="0 0 409.17265438431747 163" class="iconAbove"><g data-v-423bf9ae="" id="1bf4591b-7609-4749-acdf-098d346e62fe" fill="black" transform="matrix(3.597122236345648,0,0,3.597122236345648,-1.2230261299683605,92.53237422190927)"><path d="M1.26 3.58L1.26 3.58Q1.92 3.58 2.33 3.94Q2.74 4.30 3.01 5.18Q3.28 6.06 3.60 9.39Q3.92 12.73 4.30 13.99L4.30 13.99Q4.65 13.15 5.73 11.01Q6.80 8.88 7.49 7.25Q8.18 5.63 8.18 4.77L8.18 4.77Q8.18 4.37 8.01 4.09L8.01 4.09Q8.34 3.58 8.97 3.58Q9.60 3.58 9.60 4.27Q9.60 4.96 8.92 6.54Q8.23 8.12 7.42 9.71Q6.61 11.30 5.92 12.97Q5.24 14.64 5.24 15.47L5.24 15.47Q5.24 15.61 5.26 15.81L5.26 15.81Q5.04 16.13 4.37 16.13Q3.70 16.13 3.37 15.86Q3.05 15.58 2.81 14.81Q2.58 14.03 2.26 10.65Q1.95 7.28 1.54 5.88L1.54 5.88Q1.25 4.84 0.34 4.09L0.34 4.09Q0.46 3.85 0.74 3.72Q1.02 3.58 1.26 3.58ZM11.86 12.10L11.86 12.10Q11.48 12.10 11.10 12.05L11.10 12.05Q11.12 13.61 11.68 14.42Q12.25 15.23 13.27 15.23L13.27 15.23Q14.71 15.23 15.37 13.82L15.37 13.82Q15.71 14.14 15.71 14.60L15.71 14.60Q15.71 15.39 14.83 15.83Q13.96 16.27 13.01 16.27L13.01 16.27Q11.31 16.27 10.45 15.19Q9.59 14.11 9.59 12.40L9.59 12.40Q9.59 11.38 9.91 10.34Q10.23 9.30 10.79 8.42Q11.35 7.55 12.24 7.00Q13.12 6.45 14.17 6.45Q15.22 6.45 15.77 6.99Q16.32 7.52 16.32 8.36L16.32 8.36Q16.32 9.72 15.07 10.91Q13.82 12.10 11.86 12.10ZM14.85 8.82Q14.85 8.25 14.50 7.88Q14.14 7.50 13.52 7.50Q12.89 7.50 12.44 7.85Q11.98 8.20 11.72 8.79L11.72 8.79Q11.24 9.88 11.13 11.16L11.13 11.16Q11.47 11.20 11.76 11.20L11.76 11.20Q13.19 11.20 14.02 10.46Q14.85 9.73 14.85 8.82L14.85 8.82ZM20.78 4.35Q20.78 5.12 20.24 8.71Q19.70 12.29 19.70 13.67Q19.70 15.05 20.23 15.62L20.23 15.62Q19.80 16.13 19.26 16.13L19.26 16.13Q18.17 16.13 18.17 14.28L18.17 14.28Q18.17 13.59 18.67 10.19Q19.17 6.79 19.17 5.30Q19.17 3.81 18.87 3.22L18.87 3.22Q19.03 3.09 19.31 3.00Q19.60 2.91 19.81 2.91L19.81 2.91Q20.30 2.91 20.54 3.25Q20.78 3.58 20.78 4.35ZM26.22 7.50L26.22 7.50Q25.56 7.50 25.08 8.00Q24.60 8.50 24.36 9.25L24.36 9.25Q23.91 10.65 23.91 12.09Q23.91 13.52 24.50 14.38Q25.09 15.23 26.14 15.23L26.14 15.23Q26.81 15.23 27.30 14.74Q27.79 14.24 28.03 13.48L28.03 13.48Q28.48 12.04 28.48 10.62Q28.48 9.20 27.88 8.35Q27.29 7.50 26.22 7.50ZM25.45 16.27L25.45 16.27Q24.00 16.27 23.20 15.18Q22.40 14.08 22.40 12.40L22.40 12.40Q22.40 11.38 22.72 10.34Q23.04 9.30 23.60 8.42Q24.16 7.55 25.05 7.00Q25.93 6.45 26.95 6.45L26.95 6.45Q28.41 6.45 29.20 7.55Q29.99 8.64 29.99 10.32L29.99 10.32Q29.99 12.04 29.20 13.58L29.20 13.58Q28.35 15.25 27.01 15.92L27.01 15.92Q26.28 16.27 25.45 16.27ZM35.31 16.27L35.31 16.27Q33.61 16.27 32.75 15.19Q31.89 14.11 31.89 12.40L31.89 12.40Q31.89 11.38 32.21 10.34Q32.54 9.30 33.10 8.42Q33.66 7.55 34.54 7.00Q35.42 6.45 36.44 6.45L36.44 6.45Q38.39 6.45 38.39 7.59L38.39 7.59Q38.39 8.36 37.76 8.88L37.76 8.88Q37.42 8.22 36.97 7.86Q36.51 7.50 35.87 7.50Q35.22 7.50 34.78 7.85Q34.33 8.19 34.08 8.69Q33.84 9.18 33.68 9.81L33.68 9.81Q33.40 10.91 33.40 11.91L33.40 11.91Q33.40 13.54 33.96 14.39Q34.52 15.23 35.57 15.23L35.57 15.23Q36.89 15.23 37.51 13.82L37.51 13.82Q37.80 14.13 37.80 14.60L37.80 14.60Q37.80 15.39 37.00 15.83Q36.19 16.27 35.31 16.27ZM42.18 4.26L42.18 4.26Q42.18 4.61 42.03 5.11L42.03 5.11Q41.51 5.43 41.08 5.43Q40.66 5.43 40.48 5.28Q40.31 5.12 40.31 4.84Q40.31 4.56 40.40 3.98L40.40 3.98Q40.92 3.65 41.37 3.65L41.37 3.65Q42.18 3.65 42.18 4.26ZM40.85 16.13L40.85 16.13Q39.76 16.13 39.76 14.28L39.76 14.28Q39.76 13.51 40.05 11.68Q40.35 9.84 40.35 8.67Q40.35 7.49 40.05 6.93L40.05 6.93Q40.40 6.61 40.91 6.61L40.91 6.61Q41.93 6.61 41.93 7.67L41.93 7.67Q41.93 8.01 41.61 10.30Q41.29 12.59 41.29 13.82Q41.29 15.05 41.82 15.62L41.82 15.62Q41.38 16.13 40.85 16.13ZM45.56 7.21L45.56 7.21L45.58 6.57Q45.58 5.26 45.29 4.68L45.29 4.68Q45.43 4.55 45.72 4.45Q46.00 4.35 46.23 4.35L46.23 4.35Q46.72 4.35 46.96 4.69Q47.19 5.03 47.19 5.82L47.19 5.82Q47.19 6.13 47.03 7.21L47.03 7.21Q48.75 7.18 49.31 6.80L49.31 6.80Q49.20 7.71 48.68 8.02Q48.16 8.33 46.83 8.36L46.83 8.36Q46.19 12.32 46.19 14.31L46.19 14.31Q46.19 14.77 46.39 14.99Q46.59 15.22 46.92 15.22Q47.25 15.22 47.63 14.93Q48.01 14.64 48.23 14.21L48.23 14.21Q48.48 14.52 48.48 14.87L48.48 14.87Q48.48 15.41 47.94 15.83Q47.40 16.24 46.55 16.24Q45.70 16.24 45.20 15.79Q44.70 15.33 44.70 14.35L44.70 14.35Q44.70 13.47 45.02 11.25Q45.35 9.03 45.43 8.37L45.43 8.37Q44.18 8.37 43.58 8.75L43.58 8.75Q43.58 8.11 43.71 7.84Q43.83 7.57 44.04 7.46L44.04 7.46Q44.56 7.21 45.56 7.21ZM54.66 7.88L54.66 7.88Q54.66 7.48 54.50 7.21L54.50 7.21Q54.82 6.69 55.50 6.69L55.50 6.69Q56.14 6.69 56.14 7.41L56.14 7.41Q56.14 8.11 55.57 10.25Q54.99 12.39 54.40 13.88Q53.80 15.37 53.11 16.65Q52.42 17.93 51.47 18.76Q50.53 19.59 49.53 19.59L49.53 19.59Q47.60 19.59 47.60 18.28L47.60 18.28Q47.60 17.68 48.05 17.16L48.05 17.16Q48.43 18.41 49.71 18.41L49.71 18.41Q51.25 18.41 52.56 15.72L52.56 15.72Q52.14 15.72 51.95 15.57Q51.77 15.41 51.69 15.11L51.69 15.11Q50.62 10.63 50.00 9.11Q49.38 7.60 48.79 7.57L48.79 7.57Q48.94 7.10 49.28 6.87Q49.62 6.65 49.94 6.65L49.94 6.65Q50.79 6.65 51.37 8.09L51.37 8.09Q51.74 9.07 53.00 14.71L53.00 14.71Q53.75 12.87 54.20 10.92Q54.66 8.97 54.66 7.88ZM65.87 4.07L65.87 4.07Q66.75 3.61 67.75 3.61Q68.74 3.61 69.35 3.96Q69.96 4.30 69.96 4.93L69.96 4.93Q69.96 5.28 69.83 5.58Q69.69 5.88 69.58 6.01Q69.47 6.13 69.24 6.33L69.24 6.33Q68.89 5.53 68.38 5.11Q67.87 4.69 67.10 4.69Q66.33 4.69 65.75 5.15Q65.17 5.61 64.84 6.30Q64.51 6.99 64.29 7.84L64.29 7.84Q63.91 9.28 63.91 10.68L63.91 10.68Q63.91 12.87 64.54 14.11Q65.17 15.34 66.21 15.34L66.21 15.34Q66.91 15.34 67.54 14.99Q68.17 14.63 68.60 14.01L68.60 14.01Q68.64 13.52 68.80 12.52Q68.96 11.51 68.96 10.96Q68.96 10.40 68.75 9.94L68.75 9.94Q69.06 9.67 69.51 9.67Q69.96 9.67 70.15 9.92Q70.34 10.16 70.34 10.66Q70.34 11.16 70.10 12.57Q69.86 13.99 69.86 14.60Q69.86 15.20 70.28 15.69L70.28 15.69Q69.92 16.11 69.44 16.11L69.44 16.11Q68.67 16.11 68.57 15.05L68.57 15.05Q67.35 16.32 65.77 16.32Q64.18 16.32 63.29 14.91Q62.40 13.50 62.40 11.33L62.40 11.33Q62.40 9.06 63.27 7.10L63.27 7.10Q64.22 4.94 65.87 4.07ZM73.96 16.23L73.96 16.23Q73.01 16.23 72.46 15.29Q71.90 14.35 71.90 12.71L71.90 12.71Q71.90 10.08 73.09 8.27Q74.27 6.45 76.01 6.45L76.01 6.45Q77.20 6.45 77.98 7.39L77.98 7.39Q78.09 6.96 78.27 6.78Q78.44 6.59 78.81 6.59Q79.18 6.59 79.51 6.96L79.51 6.96Q79.25 7.63 79.07 9.21Q78.89 10.79 78.89 12.16Q78.89 13.52 79.04 14.27Q79.18 15.02 79.53 15.61L79.53 15.61Q79.13 16.13 78.58 16.13L78.58 16.13Q77.38 16.13 77.38 13.17L77.38 13.17Q77.38 12.70 77.49 11.51L77.49 11.51Q76.76 13.54 75.76 14.88Q74.76 16.23 73.96 16.23ZM76.06 7.42L76.06 7.42Q74.87 7.42 74.12 8.81Q73.37 10.19 73.37 12.36L73.37 12.36Q73.37 13.47 73.66 14.11Q73.95 14.74 74.44 14.74Q74.94 14.74 75.70 13.65Q76.47 12.56 77.10 10.98Q77.73 9.41 77.87 8.15L77.87 8.15Q76.92 7.42 76.06 7.42ZM83.03 16.13L83.03 16.13Q81.94 16.13 81.94 14.28L81.94 14.28Q81.94 13.51 82.24 11.68Q82.53 9.84 82.53 8.67Q82.53 7.49 82.24 6.93L82.24 6.93Q82.59 6.61 83.09 6.61L83.09 6.61Q84.11 6.61 84.11 7.67L84.11 7.67Q84.11 8.05 83.94 9.23Q83.76 10.40 83.71 10.84L83.71 10.84Q84.46 8.85 85.41 7.65Q86.35 6.45 86.97 6.45L86.97 6.45Q87.32 6.45 87.49 6.79Q87.67 7.13 87.67 7.48Q87.67 7.83 87.58 8.19L87.58 8.19Q87.37 8.15 87.19 8.15L87.19 8.15Q86.30 8.15 85.39 9.20Q84.49 10.25 83.98 11.51Q83.47 12.77 83.47 13.59L83.47 13.59Q83.47 15.05 84 15.62L84 15.62Q83.57 16.13 83.03 16.13ZM90.33 16.23L90.33 16.23Q89.38 16.23 88.82 15.29Q88.27 14.35 88.27 12.71L88.27 12.71Q88.27 10.08 89.45 8.27Q90.64 6.45 92.37 6.45L92.37 6.45Q93.56 6.45 94.35 7.39L94.35 7.39Q94.46 6.96 94.63 6.78Q94.81 6.59 95.18 6.59Q95.55 6.59 95.87 6.96L95.87 6.96Q95.62 7.63 95.44 9.21Q95.26 10.79 95.26 12.16Q95.26 13.52 95.40 14.27Q95.55 15.02 95.90 15.61L95.90 15.61Q95.49 16.13 94.95 16.13L94.95 16.13Q93.74 16.13 93.74 13.17L93.74 13.17Q93.74 12.70 93.86 11.51L93.86 11.51Q93.13 13.54 92.13 14.88Q91.13 16.23 90.33 16.23ZM92.43 7.42L92.43 7.42Q91.24 7.42 90.49 8.81Q89.74 10.19 89.74 12.36L89.74 12.36Q89.74 13.47 90.03 14.11Q90.31 14.74 90.81 14.74Q91.31 14.74 92.07 13.65Q92.83 12.56 93.46 10.98Q94.09 9.41 94.23 8.15L94.23 8.15Q93.28 7.42 92.43 7.42ZM104.86 13.92L104.86 13.92Q104.86 16.52 103.77 18.05Q102.68 19.59 100.84 19.59L100.84 19.59Q100.28 19.59 99.82 19.50Q99.36 19.40 98.97 19.10Q98.57 18.79 98.57 18.21Q98.57 17.64 99.08 17.16L99.08 17.16Q99.89 18.55 101.39 18.55L101.39 18.55Q102.14 18.55 102.48 18.13L102.48 18.13Q102.69 17.89 102.84 17.64Q102.98 17.39 103.09 16.88Q103.19 16.38 103.26 15.94Q103.32 15.50 103.36 14.70L103.36 14.70Q103.42 13.57 103.47 11.52L103.47 11.52Q102.75 13.57 101.74 14.90Q100.73 16.23 99.89 16.23Q99.05 16.23 98.47 15.35Q97.89 14.48 97.89 12.71L97.89 12.71Q97.89 10.46 98.90 8.54L98.90 8.54Q99.37 7.62 100.18 7.04Q101.00 6.45 102.09 6.45Q103.18 6.45 103.96 7.39L103.96 7.39Q104.08 6.94 104.25 6.77Q104.43 6.59 104.87 6.59Q105.32 6.59 105.70 6.89L105.70 6.89Q105.41 7.39 105.07 8.25L105.07 8.25Q104.86 10.00 104.86 13.92ZM102.05 7.42L102.05 7.42Q100.81 7.42 100.09 8.84Q99.36 10.26 99.36 12.36L99.36 12.36Q99.36 13.41 99.62 14.08Q99.89 14.74 100.41 14.74Q100.93 14.74 101.69 13.66Q102.45 12.57 103.08 11.00Q103.71 9.42 103.85 8.15L103.85 8.15Q102.89 7.42 102.05 7.42ZM109.62 12.10L109.62 12.10Q109.24 12.10 108.86 12.05L108.86 12.05Q108.88 13.61 109.44 14.42Q110.01 15.23 111.03 15.23L111.03 15.23Q112.48 15.23 113.13 13.82L113.13 13.82Q113.47 14.14 113.47 14.60L113.47 14.60Q113.47 15.39 112.59 15.83Q111.72 16.27 110.77 16.27L110.77 16.27Q109.07 16.27 108.21 15.19Q107.35 14.11 107.35 12.40L107.35 12.40Q107.35 11.38 107.67 10.34Q108.00 9.30 108.56 8.42Q109.12 7.55 110.00 7.00Q110.88 6.45 111.93 6.45Q112.98 6.45 113.53 6.99Q114.09 7.52 114.09 8.36L114.09 8.36Q114.09 9.72 112.83 10.91Q111.58 12.10 109.62 12.10ZM112.62 8.82Q112.62 8.25 112.26 7.88Q111.90 7.50 111.28 7.50Q110.66 7.50 110.20 7.85Q109.75 8.20 109.48 8.79L109.48 8.79Q109.00 9.88 108.89 11.16L108.89 11.16Q109.23 11.20 109.52 11.20L109.52 11.20Q110.95 11.20 111.78 10.46Q112.62 9.73 112.62 8.82L112.62 8.82Z"></path></g><g data-v-423bf9ae="" id="1098ca90-a240-4fb0-9295-828b2f8e8ed6" transform="matrix(2.046613028826732,0,0,2.046613028826732,103.20657587625944,-57.592885174284106)" stroke="none" fill="black"><path d="m76.7 59.8-.1-.1s0 .1.1.1M67.9 50.6c1.3.9 3.3 2.8 4.3 3.8-.8-.8-2.5-2.7-4.3-3.8"></path><path d="M98.3 51.3c-.4-.7-1.4-1-1.4-1s-.1-.5-.8-2.8c-.8-2.3-2.7-4.7-4.6-6.3s-4-2.2-5.7-2.7-12.8-.8-12.8-.8l-.8-.7s1.1-.7.6-1.7c-1.1-2.1-3.4-1.6-3.4-1.6l-.2 1.2s-6.7-4.1-10.3-4.9c-13.9-3.2-29.1-1.1-33.6-.4s-20 6.9-22.4 8.1C.6 39 0 44.3.9 48.5c0 .9.1 1.7.1 2.2.3 2.1.6 3.3 1 4.4.5 1.1 1.4 2.4 1.8 2.7.4.2.6.2 1.4.3s2.4.3 3.2-.1c.3-.1.5-.6.8-1.3l23.5 8.5s-.6-.3-1.4-7.5c-.8-7.1 2.1-11.1 5.6-10.9.6 0 1.3.3 1.8.6-.8.2-1.6.4-2.1.6 0 0-3.3.9-4.2 6.4-.8 5.6.4 10.8 2 13.6s3.3 3.4 4.3 3.7c1.4.3 5.5 1.6 7.7-1.3 1.1.4 4.2.9 8.1 1.3 8.7.3 19.2-.6 30.4-2.5s13.5-5.5 13.8-5.9.3-.3.2-1.2c1.4-4.4-.2-10.1-.6-10.8m-97.4-3c-.3-2.3 0-7.9 1.6-7.9.8 0 1.4.4 1.9.8l-1 .2s-2 .1-2.4 3c-.1 1.5-.1 2.9-.1 3.9m3.5 8.3c-1.4.1-2.4-2.5-2.7-6.4-.3-3.8.5-7 1.9-7.1s2.5 3 2.8 6.8-.6 6.6-2 6.7m94.5-1.8s.4 2 .2 2.4-6 3.4-6 3.4-.7-2.8 1.1-3.4c1.7-.5 4.7-2.4 4.7-2.4m-3.8-8c.9.2 1.4 1.8 1.4 2.7q-.15.15-.9.6c-.2-.2-.5-.3-.9-.2 0 0-.3.3-.4.7-.6.2-1.2.5-1.6.6-.4-1-1.1-2.5-2.1-3.7.1 0 3.4-.9 4.5-.7m-10.5 5c.6-.1 2.2.2 3 .9 2.1 1.6 2.7 3.7 3.2 5.1s.4 5.1.2 6-1 1.2-1 1.2-4.1.9-4.9 1-1.2-1.5-1.2-1.5-1-3.8-1.8-8.4 2.5-4.3 2.5-4.3m-7.2-12.9s4.7 2 5.8 2.5c5 2.1 6.1 4.2 7.2 5.9-1.8-2.8-4.4-4-4.4-4-.5-.3-8.6-4.4-8.6-4.4m5.1 10.3c-3.6-4-14.1-9-14.1-9 .3.1 2 .3 7 3.5 5.1 3.1 6.1 4.2 7.1 5.5m-15.2 1c-.6-.5-1.1-.3-1.3-.4-1-.5-2.7-1.4-3.9-1.9-4-1.7-9-3.5-13.9-5.7 0 0 15.1 4.2 19.5 7.7 4.3 3.5 8 7.4 9 9.8.1.3.3.3.3.3l1.2.2s1 .1 1.2.3c.2.1.7 2.2.7 2.2s-.6-1.6-.8-2c-.2-.3-2.1-.6-2.3-.6s-.4-.5-.4-.5c-1.3-1.6-2.1-2.9-3.9-4.8l-.5-.5c.2.3.4.4.4.4l-5.6.4s-.7-.9-2-.9-2.2 1.1-2.2 1.1-3.6.1-7.5.2c0 0-1.4-3-.7-3.5 1-1 6.9-2 12.4-1.9.3.1.7.3 1 .6-.3-.3-.5-.4-.7-.5m-9 11c.9 0 17.6-.9 17.6-.9s3-.1 3.4.8.7 2.2.7 2.2l-21.2 1.1-.8-2.2c.1.1-.5-1 .3-1M80.2 64s.8 1.8.6 3c-.4.6-2.4.8-2.4.8l-15.8.7s-1.5 0-2.8-1.9c-.6-.8-.7-1.4-.7-1.4zm-65-29c.8-1 1.8-1.5 2.2-1.3.4.3-.1 1.3-.9 2.2-.8 1-1.8 1.5-2.2 1.3-.4-.3 0-1.2.9-2.2m0 4.8c-1.1.6-1.1 1.1-1 3.8s2.6 7.5 3.7 8.7-.1 1.7-1.4 1.1-4.6-3.7-5.6-8.7 4.3-4.9 4.3-4.9m14.5 19.7s1 .3 1.3 1.5c-.6-.6-.3-.9-3.1-1.9s-12.5-4.6-13.3-5.3c-.2-.2-.7-1.1-1.3-2.1.6.9 1.3 1.7 2.1 2.1 2.5 1.2 14.3 5.7 14.3 5.7m-20.1-13 1.2.2s.4 1 .9 2.2c-.6-1.1-1.1-1.9-1.2-2-.1 0-.9-.2-1-.2.1 0 .1-.2.1-.2m22.1 17.9s-21-7.8-22.6-8.4c0-.5-1.8-8.5-2.1-9.7.8-.1 1.1 0 1.7.1.2 0 .2.2 0 .3-.2 0-.4.1-.6.1-.3.1-.1.9-.1.9s1.2 5.4 1.4 6.5c.2 1 1.8 1.8 1.8 1.8zm-3-24.8s-.2-.2-.1-.4 0-1.4 0-1.7-.5-1.9-2.3-2.1-3.6.8-3.6.8-1.2.8-1.5 1.4c-.3.7.4 1.9.4 1.9h-4.1c.5-3.6 3.5-7.6 3.5-7.6 3.8-1.3 7.8-.1 9.4 1.2s4.1 7 4.1 7zm9.3 1-3.9-6.9s-2-2 2.8-2.6c3.5-.5 10.3-.8 12.2-.8 2 0 9.4 0 10.9.4s6.1 3 7 3.5 7.4 5 7.8 5.3c-2.6.2-4.9.7-7.3 0-1.7.6-13.1 1.2-14.5 1.2s-15-.1-15-.1m.8 29c-2.9 0-5.7-4.1-5.7-9.2s1.3-9.2 4.1-9.2c2.9 0 5.4 4.3 5.4 9.4s-.9 9-3.8 9m58.4-5.3s-3.9 2.6-12.7 4.5-22.5 2.3-27 2.2-7.2-1.4-7.8-1.9-1.7-1.7-2.3-5.2c-.7-3.5-2.3-7-2.3-7l1.4.4c.7 2.2 1.3 3.5 1.6 5.2 1.1 4.7 2.8 6 7.7 7s18.3-.3 23.1-.9c4.7-.5 13.7-2.7 14.8-3.2 1.1-.4 3.2-1.4 4.9-2.7-.1.7-1.4 1.6-1.4 1.6m1.3-2.6c-.3.4-4.1 2.4-4.7 2.6s-.6-.3-.6-.3v-2.7s4.5-2.3 6-3.1c0 1.3-.4 3-.7 3.5"></path></g></svg>